<svg xmlns="http://www.w3.org/2000/svg" xmlns:xlink="http://www.w3.org/1999/xlink" xml:space="preserve" version="1.1" style="shape-rendering:geometricPrecision;text-rendering:geometricPrecision;image-rendering:optimizeQuality;" viewBox="0 0 403 403" x="0px" y="0px" fill-rule="evenodd" clip-rule="evenodd">
  <g>
    <path d="M220 266l125 77c36,-36 58,-86 58,-141 0,-12 -1,-23 -2,-34l-181 98z"/>
    <path d="M155 249l-4 148c16,4 33,6 51,6 48,0 93,-17 128,-46l-175 -108z"/>
    <path d="M137 185l-130 70c17,63 64,113 124,136l6 -206z"/>
    <path d="M184 137l-126 -77c-36,36 -58,86 -58,142 0,11 1,22 3,33l181 -98z"/>
    <path d="M272 13l-6 205 130 -70c-17,-62 -63,-113 -124,-135z"/>
    <path d="M248 154l5 -148c-17,-4 -34,-6 -51,-6 -49,0 -94,17 -129,46l175 108z"/>
  </g>
</svg>