<?xml version="1.0" encoding="UTF-8" standalone="no"?>
<svg xmlns="http://www.w3.org/2000/svg" xmlns:xlink="http://www.w3.org/1999/xlink" version="1.1" x="0px" y="0px" viewBox="0 0 160 160" style="enable-background:new 0 0 160 160;" xml:space="preserve">
    <path d="M145.65,38.83H56.71c-4.89,0-8.86,3.97-8.86,8.86v12.55H35.3c-4.89,0-8.86,3.97-8.86,8.86v23.66H14.35  c-1.03,0-1.87-0.83-1.87-1.86V26.28c0-1.03,0.84-1.86,1.87-1.86h88.94c1.03,0,1.86,0.83,1.86,1.86v10.05h7V26.28  c0-4.89-3.97-8.86-8.86-8.86H14.35c-4.89,0-8.87,3.97-8.87,8.86V90.9c0,4.89,3.98,8.86,8.87,8.86h12.09v33.96  c0,4.89,3.97,8.86,8.86,8.86h88.95c4.88,0,8.86-3.97,8.86-8.86V69.1c0-4.89-3.98-8.86-8.86-8.86h-69.4V47.69  c0-1.03,0.83-1.86,1.86-1.86h88.94c1.03,0,1.87,0.83,1.87,1.86v64.62c0,1.02-0.84,1.86-1.87,1.86h-10.04v7h10.04  c4.89,0,8.87-3.98,8.87-8.86V47.69C154.52,42.8,150.54,38.83,145.65,38.83z M35.3,135.58c-1.03,0-1.86-0.83-1.86-1.86v-16.75  l22.4-26.94l35.18,45.55H35.3z M126.11,133.72c0,1.03-0.84,1.86-1.86,1.86H99.86l-10.41-13.49l14.3-11.12l22.36,19.54V133.72z   M124.25,67.24c1.02,0,1.86,0.83,1.86,1.86v52.12l-19.93-17.42c-1.26-1.1-3.13-1.15-4.45-0.12l-16.56,12.87L58.71,82.3  c-0.64-0.84-1.64-1.34-2.7-1.36c-1.07-0.05-2.08,0.44-2.76,1.26l-19.81,23.82V69.1c0-1.03,0.83-1.86,1.86-1.86h16.03  c0.01,0,0.01,0,0.02,0H124.25z"/>
    <path d="M92.49,98.647c4.552,0,8.589-2.205,11.133-5.592h11.599c3.185,0,5.775-2.591,5.775-5.775c0-2.452-1.535-4.552-3.694-5.389  c-1.053-3.665-4.424-6.313-8.399-6.313c-1.77,0-3.42,0.534-4.807,1.447c-2.498-3.757-6.766-6.241-11.606-6.241  c-7.682,0-13.932,6.25-13.932,13.932S84.808,98.647,92.49,98.647z M101.313,85.109c0.192,0,0.381,0.037,0.561,0.111  c0.679,0.28,1.446,0.247,2.099-0.09c0.653-0.337,1.124-0.944,1.289-1.659c0.394-1.704,1.891-2.894,3.642-2.894  c1.997,0,3.638,1.561,3.734,3.553c0.065,1.336,1.168,2.378,2.496,2.378c0.04,0,0.069-0.001,0.133-0.004  c0.406,0.023,0.73,0.362,0.73,0.775c0,0.428-0.348,0.775-0.775,0.775h-13.908c-0.813,0-1.474-0.66-1.474-1.473  S100.501,85.109,101.313,85.109z M92.49,75.784c3.282,0,6.149,1.785,7.701,4.43c-3.035,0.535-5.352,3.183-5.352,6.369  c0,2.234,1.138,4.206,2.864,5.37c-1.469,1.061-3.267,1.694-5.213,1.694c-4.925,0-8.932-4.007-8.932-8.932  S87.565,75.784,92.49,75.784z"/>
</svg>