<svg xmlns="http://www.w3.org/2000/svg" xmlns:xlink="http://www.w3.org/1999/xlink" version="1.1" x="0px" y="0px" viewBox="0 0 512 512" style="enable-background:new 0 0 512 512;" xml:space="preserve">
  <g>
  <path d="M480.6,62.4c17.2,0,31.2-14,31.2-31.2S497.8,0,480.6,0c-17.2,0-31.2,14-31.2,31.2C449.4,48.4,463.4,62.4,480.6,62.4z    M480.6,15c8.9,0,16.2,7.3,16.2,16.2s-7.3,16.2-16.2,16.2c-8.9,0-16.2-7.3-16.2-16.2C464.4,22.2,471.7,15,480.6,15z"/>
  <path d="M107.3,474.1H82.6c-4.1,0-7.5,3.4-7.5,7.5c0,4.1,3.4,7.5,7.5,7.5h24.8c4.1,0,7.5-3.4,7.5-7.5   C114.8,477.4,111.5,474.1,107.3,474.1z"/>
  <path d="M300.6,474.1h-24.8c-4.1,0-7.5,3.4-7.5,7.5c0,4.1,3.4,7.5,7.5,7.5h24.8c4.1,0,7.5-3.4,7.5-7.5   C308.1,477.4,304.7,474.1,300.6,474.1z"/>
  <path d="M171.8,474.1H147c-4.1,0-7.5,3.4-7.5,7.5c0,4.1,3.4,7.5,7.5,7.5h24.8c4.1,0,7.5-3.4,7.5-7.5   C179.2,477.4,175.9,474.1,171.8,474.1z"/>
  <path d="M236.2,474.1h-24.8c-4.1,0-7.5,3.4-7.5,7.5c0,4.1,3.4,7.5,7.5,7.5h24.8c4.1,0,7.5-3.4,7.5-7.5   C243.7,477.4,240.3,474.1,236.2,474.1z"/>
  <path d="M429.4,474.1h-24.8c-4.1,0-7.5,3.4-7.5,7.5c0,4.1,3.4,7.5,7.5,7.5h24.8c4.1,0,7.5-3.4,7.5-7.5   C436.9,477.4,433.6,474.1,429.4,474.1z"/>
  <path d="M365,474.1h-24.8c-4.1,0-7.5,3.4-7.5,7.5c0,4.1,3.4,7.5,7.5,7.5H365c4.1,0,7.5-3.4,7.5-7.5   C372.5,477.4,369.2,474.1,365,474.1z"/>
  <path d="M23,300.6c0,4.1,3.4,7.5,7.5,7.5c4.1,0,7.5-3.4,7.5-7.5v-24.8c0-4.1-3.4-7.5-7.5-7.5c-4.1,0-7.5,3.4-7.5,7.5V300.6z"/>
  <path d="M23,236.2c0,4.1,3.4,7.5,7.5,7.5c4.1,0,7.5-3.4,7.5-7.5v-24.8c0-4.1-3.4-7.5-7.5-7.5c-4.1,0-7.5,3.4-7.5,7.5V236.2z"/>
  <path d="M23,365c0,4.1,3.4,7.5,7.5,7.5c4.1,0,7.5-3.4,7.5-7.5v-24.8c0-4.1-3.4-7.5-7.5-7.5c-4.1,0-7.5,3.4-7.5,7.5V365z"/>
  <path d="M30.4,436.9c4.1,0,7.5-3.4,7.5-7.5v-24.8c0-4.1-3.4-7.5-7.5-7.5c-4.1,0-7.5,3.4-7.5,7.5v24.8   C23,433.6,26.3,436.9,30.4,436.9z"/>
  <path d="M30.4,114.8c4.1,0,7.5-3.4,7.5-7.5V82.6c0-4.1-3.4-7.5-7.5-7.5c-4.1,0-7.5,3.4-7.5,7.5v24.8   C23,111.5,26.3,114.8,30.4,114.8z"/>
  <path d="M23,171.8c0,4.1,3.4,7.5,7.5,7.5c4.1,0,7.5-3.4,7.5-7.5V147c0-4.1-3.4-7.5-7.5-7.5c-4.1,0-7.5,3.4-7.5,7.5V171.8z"/>
  <path d="M147,37.9h24.8c4.1,0,7.5-3.4,7.5-7.5c0-4.1-3.4-7.5-7.5-7.5H147c-4.1,0-7.5,3.4-7.5,7.5C139.5,34.6,142.8,37.9,147,37.9z"/>
  <path d="M404.7,37.9h24.8c4.1,0,7.5-3.4,7.5-7.5c0-4.1-3.4-7.5-7.5-7.5h-24.8c-4.1,0-7.5,3.4-7.5,7.5   C397.2,34.6,400.5,37.9,404.7,37.9z"/>
  <path d="M211.4,37.9h24.8c4.1,0,7.5-3.4,7.5-7.5c0-4.1-3.4-7.5-7.5-7.5h-24.8c-4.1,0-7.5,3.4-7.5,7.5   C203.9,34.6,207.3,37.9,211.4,37.9z"/>
  <path d="M275.8,37.9h24.8c4.1,0,7.5-3.4,7.5-7.5c0-4.1-3.4-7.5-7.5-7.5h-24.8c-4.1,0-7.5,3.4-7.5,7.5   C268.3,34.6,271.7,37.9,275.8,37.9z"/>
  <path d="M340.2,37.9H365c4.1,0,7.5-3.4,7.5-7.5c0-4.1-3.4-7.5-7.5-7.5h-24.8c-4.1,0-7.5,3.4-7.5,7.5   C332.8,34.6,336.1,37.9,340.2,37.9z"/>
  <path d="M82.6,37.9h24.8c4.1,0,7.5-3.4,7.5-7.5c0-4.1-3.4-7.5-7.5-7.5H82.6c-4.1,0-7.5,3.4-7.5,7.5C75.1,34.6,78.4,37.9,82.6,37.9z   "/>
  <path d="M474.1,300.6c0,4.1,3.4,7.5,7.5,7.5c4.1,0,7.5-3.4,7.5-7.5v-24.8c0-4.1-3.4-7.5-7.5-7.5c-4.1,0-7.5,3.4-7.5,7.5V300.6z"/>
  <path d="M474.1,236.2c0,4.1,3.4,7.5,7.5,7.5c4.1,0,7.5-3.4,7.5-7.5v-24.8c0-4.1-3.4-7.5-7.5-7.5c-4.1,0-7.5,3.4-7.5,7.5V236.2z"/>
  <path d="M481.6,436.9c4.1,0,7.5-3.4,7.5-7.5v-24.8c0-4.1-3.4-7.5-7.5-7.5c-4.1,0-7.5,3.4-7.5,7.5v24.8   C474.1,433.6,477.4,436.9,481.6,436.9z"/>
  <path d="M474.1,365c0,4.1,3.4,7.5,7.5,7.5c4.1,0,7.5-3.4,7.5-7.5v-24.8c0-4.1-3.4-7.5-7.5-7.5c-4.1,0-7.5,3.4-7.5,7.5V365z"/>
  <path d="M474.1,171.8c0,4.1,3.4,7.5,7.5,7.5c4.1,0,7.5-3.4,7.5-7.5V147c0-4.1-3.4-7.5-7.5-7.5c-4.1,0-7.5,3.4-7.5,7.5V171.8z"/>
  <path d="M481.6,114.8c4.1,0,7.5-3.4,7.5-7.5V82.6c0-4.1-3.4-7.5-7.5-7.5c-4.1,0-7.5,3.4-7.5,7.5v24.8   C474.1,111.5,477.4,114.8,481.6,114.8z"/>
  <path d="M31.4,62.4c17.2,0,31.2-14,31.2-31.2S48.6,0,31.4,0S0.2,14,0.2,31.2C0.2,48.4,14.2,62.4,31.4,62.4z M31.4,15   c8.9,0,16.2,7.3,16.2,16.2s-7.3,16.2-16.2,16.2c-8.9,0-16.2-7.3-16.2-16.2C15.2,22.2,22.5,15,31.4,15z"/>
  <path d="M480.6,449.6c-17.2,0-31.2,14-31.2,31.2c0,17.2,14,31.2,31.2,31.2c17.2,0,31.2-14,31.2-31.2   C511.8,463.6,497.8,449.6,480.6,449.6z M480.6,497c-8.9,0-16.2-7.3-16.2-16.2c0-8.9,7.3-16.2,16.2-16.2c8.9,0,16.2,7.3,16.2,16.2   C496.8,489.8,489.5,497,480.6,497z"/>
  <path d="M31.4,449.6c-17.2,0-31.2,14-31.2,31.2c0,17.2,14,31.2,31.2,31.2c17.2,0,31.2-14,31.2-31.2   C62.6,463.6,48.6,449.6,31.4,449.6z M31.4,497c-8.9,0-16.2-7.3-16.2-16.2c0-8.9,7.3-16.2,16.2-16.2s16.2,7.3,16.2,16.2   C47.6,489.8,40.3,497,31.4,497z"/>
  <path d="M453.6,93.3c0-14.7-11.9-26.6-26.6-26.6H85c-14.7,0-26.6,11.9-26.6,26.6v61.9v48.7v214.8c0,14.7,11.9,26.6,26.6,26.6h342   c14.7,0,26.6-11.9,26.6-26.6V93.3z M354.3,430.3H85c-6.4,0-11.6-5.2-11.6-11.6V260.4l76.8-42.4c10.1-5.6,22.6-4.6,31.7,2.4   l157.7,121.7c9.2,7.1,14.7,18.3,14.7,30V430.3z M438.6,418.7c0,6.4-5.2,11.6-11.6,11.6h-57.7v-58.2c0-16.3-7.7-31.9-20.5-41.8   l-78-60.2l50.3-28.7c9.3-5.3,20.7-5.1,29.8,0.6l69.1,43.6c0.3,0.2,0.7,0.4,1.1,0.6l17.6,11.1V418.7z M438.6,279.5l-31.4-19.7   c-0.3-0.2-0.6-0.3-0.9-0.5l-47.5-30c-13.8-8.7-31.1-9-45.2-1l-55.7,31.8l-66.8-51.6c-13.9-10.7-32.7-12.2-48.1-3.7l-69.6,38.4   v-39.4v-48.7V93.3c0-6.4,5.2-11.6,11.6-11.6h342c6.4,0,11.6,5.2,11.6,11.6V279.5z"/>
  <path d="M358.3,104c-24.8,0-44.9,20.2-44.9,44.9s20.2,44.9,44.9,44.9s44.9-20.2,44.9-44.9S383.1,104,358.3,104z M358.3,178.9   c-16.5,0-30-13.4-30-30s13.4-30,30-30s30,13.4,30,30S374.8,178.9,358.3,178.9z"/><polygon points="358.3,193.9 358.3,193.9 358.3,193.9  "/>
  </g>
</svg>